2.2Hzlow3min_grf.mot
version=1
nRows=15
nColumns 19
inDegrees=yes
endheader
time	1_ground_force_vx	1_ground_force_vy	1_ground_force_vz	1_ground_force_px	1_ground_force_py	1_ground_force_pz	1_ground_torque_x	1_ground_torque_y	1_ground_torque_z	2_ground_force_vx	2_ground_force_vy	2_ground_force_vz	2_ground_force_px	2_ground_force_py	2_ground_force_pz	2_ground_torque_x	2_ground_torque_y	2_ground_torque_z
            0.005000	           25.996283	          262.181320	          -15.265556	           -0.152262	            0.006318	           -0.423967	            0.062977	            0.635142	           -0.036981	            6.530679	          256.485586	           17.712376	           -0.135021	            0.005788	           -0.639501	            0.016056	            0.630593	            0.043547
            0.005500	           26.085241	          267.772554	          -15.929661	           -0.152674	            0.006318	           -0.424062	            0.062468	            0.641249	           -0.038148	            6.282822	          260.349033	           18.524052	           -0.134422	            0.005790	           -0.639223	            0.013374	            0.554192	            0.039431
            0.006000	           25.854237	          274.443292	          -16.129772	           -0.153130	            0.006316	           -0.423537	            0.047510	            0.504322	           -0.029640	            5.702658	          265.319152	           18.495103	           -0.134934	            0.005789	           -0.639489	            0.008523	            0.396534	            0.027642
            0.006500	           25.714519	          280.213733	          -16.563255	           -0.153282	            0.006315	           -0.423460	            0.037449	            0.408083	           -0.024122	            5.403922	          270.287669	           19.216885	           -0.135108	            0.005789	           -0.639872	            0.006784	            0.339292	            0.024123
            0.007000	           25.757728	          286.525627	          -17.132442	           -0.153202	            0.006313	           -0.422927	            0.036697	            0.408212	           -0.024409	            4.589653	          275.255771	           19.516533	           -0.135282	            0.005789	           -0.639830	            0.005320	            0.319053	            0.022622
            0.007500	           25.572200	          290.854327	          -17.663706	           -0.153181	            0.006316	           -0.423724	            0.041631	            0.473503	           -0.028756	            3.868377	          280.408687	           19.722942	           -0.135138	            0.005789	           -0.639707	            0.005778	            0.418856	            0.029461
            0.008000	           25.202840	          297.706711	          -18.183694	           -0.153737	            0.006314	           -0.423062	            0.046267	            0.546520	           -0.033381	            3.194842	          285.375851	           20.444883	           -0.135150	            0.005791	           -0.640253	            0.006372	            0.569213	            0.040780
            0.008500	           25.109043	          303.657199	          -18.570662	           -0.153936	            0.006314	           -0.423280	            0.050390	            0.609389	           -0.037268	            2.431411	          289.239217	           20.740569	           -0.135015	            0.005789	           -0.639727	            0.004810	            0.572244	            0.041034
            0.009000	           25.106836	          308.887097	          -19.052661	           -0.153826	            0.006315	           -0.423371	            0.047776	            0.587784	           -0.036255	            2.038290	          294.391704	           21.416119	           -0.135488	            0.005788	           -0.639748	            0.003532	            0.510191	            0.037115
            0.009500	           24.875480	          315.017855	          -19.438515	           -0.153935	            0.006314	           -0.423165	            0.038358	            0.485760	           -0.029974	            1.410858	          299.543787	           21.950985	           -0.135505	            0.005789	           -0.640207	            0.002130	            0.452199	            0.033138
            0.010000	           24.690405	          320.607204	          -19.689234	           -0.154125	            0.006314	           -0.423158	            0.033646	            0.436899	           -0.026831	            0.973382	          303.960820	           22.248502	           -0.135103	            0.005790	           -0.640119	            0.001309	            0.408663	            0.029912
            0.010500	           24.595533	          327.460625	          -20.439184	           -0.154302	            0.006312	           -0.422730	            0.032760	            0.436161	           -0.027224	            0.441582	          308.561381	           22.640573	           -0.135336	            0.005790	           -0.640391	            0.000624	            0.436289	            0.032013
            0.011000	           24.548117	          332.328999	          -20.693336	           -0.154374	            0.006313	           -0.422891	            0.039330	            0.532442	           -0.033154	            0.095832	          313.531008	           22.986950	           -0.135203	            0.005792	           -0.640582	            0.000152	            0.496840	            0.036426
            0.011500	           24.361577	          338.461536	          -21.492006	           -0.154648	            0.006312	           -0.422665	            0.042781	            0.594371	           -0.037742	           -0.668142	          317.577571	           23.564861	           -0.134983	            0.005792	           -0.640328	           -0.001276	            0.606508	            0.045004
            0.012000	           24.129603	          344.232942	          -22.154541	           -0.154958	            0.006312	           -0.422837	            0.041811	            0.596469	           -0.038388	           -1.578146	          323.098091	           23.772664	           -0.135612	            0.005791	           -0.640675	           -0.003360	            0.687975	            0.050619
